<svg version="1.2" xmlns="http://www.w3.org/2000/svg" viewBox="0 0 958 269" width="958" height="269"><style>.a{fill:#424c57}.b{fill:#3bc8aa}</style><path fill-rule="evenodd" class="a" d="m288 30l2.5 3c1.4 1.6 2.5 4 2.5 5.3 0 1.2-1.9 5.6-4.2 9.7-2.2 4.1-6.4 11.1-9.2 15.4-3.7 5.8-6.3 8.6-14.1 13.1l-53.5 0.5c-48.4 0.5-53.9 0.7-57.5 2.3-2.2 1-5.3 3-6.9 4.5-1.5 1.5-4.9 5.9-7.5 9.7-2.6 3.8-7.7 12-11.3 18-3.6 6-8 13.9-9.8 17.5-2.4 4.9-3.1 7.3-2.6 9.8 0.4 1.9 1.5 3.7 2.9 4.5 1.6 0.9 13 1.3 42.7 1.7 29.7 0.4 41.1 0.8 42.8 1.8 1.2 0.6 2.4 2.1 2.7 3.2 0.3 1.1-0.5 3.9-1.6 6.3-1.2 2.3-3.8 6.8-5.8 10.1-2 3.2-4.9 6.6-6.6 7.5-2.7 1.4-10.6 1.6-74.3 1.9-70.9 0.2-71.2 0.2-75.5-1.9-2.3-1.2-6-3.6-8.1-5.3-2.1-1.7-4.8-4.9-6-7.1-1.6-3.1-2.1-5.8-2.1-12.5 0-7.6 0.3-9.1 3.1-14 1.7-3 13.7-24.2 26.8-47 13.1-22.8 24.8-43 26.1-44.8 1.3-1.8 4.9-5 8.1-7 3.2-2 7.8-4.2 10.3-4.9 3.3-0.8 30.5-1.1 186.1-1.3zm610.5 94.1c2.8-0.1 7.6 0.6 10.8 1.4 3.1 0.8 7.6 2.8 9.9 4.4 2.4 1.6 5.3 3.9 6.5 5.2 1.1 1.3 3.1 4.4 4.4 6.9 1.6 3.1 2.4 6.8 2.7 12 0.4 6.5 0.2 7.7-1.4 8.8-1.4 0.9-7.9 1.2-24.7 1.2-12.5 0-22.7 0.3-22.7 0.8 0 0.4 1 2.5 2.3 4.6 1.4 2.5 3.8 4.8 6.7 6.3 3.2 1.6 6.1 2.3 10 2.3 3 0 8.2-0.7 11.5-1.7 3.3-0.9 7.6-1.7 13-1.8l0.5 12.5-5.8 2.8c-5.4 2.6-6.4 2.7-20.2 2.7-14.3 0-14.7-0.1-21-3.1-4-2-8-4.9-10.3-7.5-2.1-2.4-4.7-6.9-5.8-9.9-1.3-3.5-2.1-7.9-2.1-12 0-3.8 0.9-9.2 2-13 1.4-4.4 3.5-8.1 6.4-11.4 2.4-2.7 6-5.7 8-6.7 2.1-1.1 6.2-2.5 9-3.3 2.9-0.8 7.5-1.5 10.3-1.5zm-12.5 23.9c-1 2-0.9 2.6 0.2 3.2 0.7 0.4 6.7 0.8 13.4 0.8 6.6 0 12.4-0.2 12.7-0.5 0.4-0.3 0.2-1.7-0.5-3.2-0.6-1.6-2.3-4-3.7-5.6-2.3-2.5-3.3-2.7-9.2-2.7-5.8 0-6.8 0.3-9.1 2.8-1.4 1.5-3.1 3.8-3.8 5.2z"/><path fill-rule="evenodd" class="b" d="m196 29.5c30.5 0 42.9 0.1 27.5 0.2-15.4 0.2-40.4 0.2-55.5 0-15.1-0.1-2.5-0.2 28-0.2zm53.3 65.6c67-0.1 69.9 0 75 1.9 2.8 1 7 3.4 9.2 5.3 2.2 1.8 4.8 5 5.8 7 1.1 2.4 1.7 6.1 1.7 17.7l-12.9 22.3c-7 12.2-19.5 33.7-27.6 47.7-8.1 14-16 27.3-17.5 29.5-1.5 2.2-4.5 5.5-6.6 7.4-2.1 1.9-6.4 4.6-14.9 8.6h-209.4l-2.8-2.1c-2.1-1.6-2.9-3.1-3.1-6-0.2-3.2 0.6-5.3 5-12.2 2.9-4.6 7.1-11.1 9.3-14.5 2.3-3.6 5.9-7.5 13-12.3l23-0.7c12.7-0.4 42.8-0.7 111-0.7l6-3.3c5.1-2.8 6.8-4.6 11.6-11.8 3.1-4.6 9.5-15.2 14.2-23.4 4.8-8.3 9.1-16.5 9.7-18.3 0.8-2.7 0.7-3.7-3.6-9.7l-42.5-0.5c-35.9-0.4-42.9-0.7-44.3-2-0.9-0.8-1.7-2.4-1.6-3.5 0-1.1 1.2-4.3 2.6-7 1.5-2.8 4.3-7.4 6.3-10.4 2-2.9 4.5-5.8 5.6-6.4 1.1-0.6 3.4-1.4 5-1.8 1.7-0.4 34.4-0.7 72.8-0.8zm-87.3 49.3c11.8 0 16.6 0.2 10.5 0.3-6 0.2-15.7 0.2-21.5 0-5.8-0.1-0.8-0.3 11-0.3zm746 20c8 0 11.4 0.2 7.5 0.3-3.8 0.2-10.4 0.2-14.5 0-4.1-0.1-1-0.3 7-0.3z"/><path class="a" d="m424.5 94.4c-3.9 0.8-9.3 2.3-12 3.5-2.8 1.2-6.7 3.9-8.8 5.9-2.1 2-4.8 5.5-5.9 7.7-1.1 2.2-2.3 6.2-2.5 9-0.3 2.7 0 6.9 0.6 9.2 0.6 2.4 2.7 6.1 4.9 8.4 2 2.2 5.5 5.1 7.7 6.3 2.2 1.3 11.2 4.7 20 7.7 8.8 2.9 16.8 6.1 17.8 7.1 0.9 1 2 2.8 2.3 4 0.4 1.4-0.1 3.6-1.3 5.8-1.2 2.3-3.1 3.9-5.3 4.7-1.9 0.7-6.4 1.2-10 1.2-3.6 0.1-9.2-0.6-12.5-1.4-3.3-0.9-9.5-3.2-13.8-5.1-4.2-1.8-7.9-3.3-8.2-3.2-0.3 0.2-1.1 3.9-1.7 8.3-0.6 4.4-0.8 8.8-0.4 9.7 0.3 1 3 2.9 5.8 4.3 2.9 1.3 8.7 3.2 12.8 4.1 5.4 1.1 10.9 1.5 20 1.2 10.7-0.4 13.3-0.8 18-2.9 3-1.4 7.2-4.1 9.4-6 2.1-1.9 5-5.4 6.5-7.9 2.3-3.9 2.6-5.6 2.6-13.2 0-8-0.2-8.9-3.1-13-1.6-2.3-5.2-5.7-7.9-7.3-2.6-1.7-12.3-5.5-21.3-8.5-13.4-4.4-17-6-18.6-8.2-1.8-2.3-1.9-3.3-1.1-5.9 0.6-1.8 2.3-4.1 3.8-5.3 2.5-1.8 4.1-2.1 13-2 8.7 0.1 11.1 0.5 16.7 2.8 3.6 1.6 7.5 3 8.8 3.2 1.4 0.3 2.5-0.2 3.1-1.4 0.5-0.9 1-4.9 1.2-8.7l0.3-7c-7.3-3.5-11.8-5.1-14.6-5.9-2.9-0.7-8.4-1.6-12.3-1.9-4-0.3-10 0-14 0.7zm141.6 1.1c-1.8 1.5-3.3 3.8-3.7 5.7-0.3 1.8-0.1 5 0.5 7 0.8 2.7 2 4.3 4.4 5.4q3.2 1.7 8.4 1.3c3.5-0.3 5.9-1.1 7.3-2.4 1.5-1.4 2.3-3.7 2.7-7.5 0.4-5.2 0.3-5.7-2.9-8.8-2.9-2.8-4-3.2-8.5-3.2-4 0-5.8 0.6-8.2 2.5zm212.9 0.4c-2.2 2.3-2.9 3.9-2.9 7.5-0.1 2.5 0.4 5.5 0.9 6.6 0.5 1.1 2.6 2.7 4.5 3.5 1.9 0.8 5.2 1.5 7.3 1.5 2 0 4.6-0.8 5.7-1.6 1.1-0.8 2.8-2.7 3.7-4.2 1-1.5 1.8-4.2 1.8-6 0-2.3-0.9-4.1-3.5-6.7-3.2-3.2-4-3.5-9.1-3.5-4.8 0-5.9 0.4-8.4 2.9zm-296 47.6v48.5c11.2 0 16-0.3 17.8-0.7l3.2-0.8c0-20.5 0.3-26.7 0.7-27 0.5-0.2 3.3 2.1 6.3 5.3 3.1 3.1 8.9 9.6 13 14.5l7.5 8.8 24.5-0.1c-3-4.3-9.5-12.3-16.4-20.5-6.9-8.3-12.6-15.6-12.6-16.3 0-0.6 5.6-7.3 12.5-14.7 6.9-7.4 12.3-14 12-14.5-0.3-0.6-5.1-1-11.3-1h-10.7c-18.2 20.1-23.9 26-24.5 26-0.6 0-1-10-1-28v-28h-21zm117 0v48.5h22v-97h-22zm37 0v48.5h21v-97h-21zm38 0v48.5h22v-39h41v39h23v-97h-23v40h-41v-40h-22zm172.4-17.7c-2.7 0.9-6.7 2.9-8.7 4.4-2 1.6-3.7 3.4-3.7 4q0 1.3-0.9 0.3c-0.5-0.6-1.1-2.8-1.3-5l-0.3-4-19.5-0.5v67h21c0-24.4 0.5-33.5 1.1-36 0.6-2.5 2-5.8 3.2-7.4 1.2-1.6 3.7-3.6 5.4-4.3 1.8-0.7 5.9-1.5 9-1.7l5.8-0.4c-0.5-13-0.9-17-1.1-17.5-0.2-0.4-1.4-0.7-2.7-0.7-1.2 0.1-4.5 0.8-7.3 1.8zm-284.4 32.7v33.5h22l-0.5-66.5-21.4-0.6zm213.9 0.1v33.5h21v-67h-21z"/><path class="b" d="m482.6 95.3c-0.2 0.6-0.3 19.4-0.2 41.7l0.1 40.5 0.5-82.5h21c0 43.4 0.3 56 0.7 56 0.5 0 3-2.3 5.8-5.2l5-5.3-10.5 10v-56.5c-19 0-22.2 0.3-22.4 1.3zm123.9-0.6c1.6 0.2 4.8 0.2 7 0 2.2-0.2 0.8-0.4-3-0.4-3.9 0-5.7 0.2-4 0.4zm30.1 0.6c-0.2 0.6-0.3 19.7-0.2 42.2l0.1 41 0.5-83.5h21l0.5 69.5 0.5-70.5c-19 0-22.2 0.3-22.4 1.3zm38 0c-0.2 0.6-0.3 16.1-0.2 34.2l0.1 33 0.5-67.5h22l0.6 28.5 0.4-29.5c-19.9 0-23.2 0.3-23.4 1.3zm71.4-0.6c1.9 0.2 5.3 0.2 7.5 0 2.2-0.2 0.6-0.4-3.5-0.4-4.1 0-5.9 0.2-4 0.4zm-123.6 27.3c0 9.1 0.2 12.7 0.3 8 0.2-4.7 0.2-12.1 0-16.5-0.1-4.4-0.3-0.6-0.3 8.5zm-85.4 2.7c1.9 0.2 5.3 0.2 7.5 0 2.2-0.2 0.6-0.4-3.5-0.4-4.1 0-5.9 0.2-4 0.4zm253.2 0c7.2 0.3 7.8 0.5 8.2 2.5 0.3 1.9 0.4 1.8 0.5-0.5l0.1-2.7-16.5 0.4zm22.2 0.6c-0.3 0.6-0.4 2.8-0.2 4.7 0.4 3.3 0.4 3.3 0.6-0.7l0.1-4.3c17.6 0 19.2 0.3 20 1.8 0.9 1.6 1 1.6 1 0 0-1-0.6-2-1.5-2.3-0.8-0.3-5.5-0.5-10.5-0.5-6.2 0-9.2 0.4-9.5 1.3zm46 0.4c-0.4 0.3-0.7 3.6-0.6 7.2 0.1 3.6 0.6 7.3 1.1 8.1 0.7 1 1-1.2 1-7.2 0-4.9-0.1-8.8-0.3-8.8-0.2 0-0.7 0.3-1.2 0.7zm-82 32.3c0 10.7 0.1 15.2 0.3 10 0.2-5.2 0.2-14 0-19.5-0.2-5.5-0.3-1.2-0.3 9.5zm21.9-4.5c0 7.7 0.2 10.6 0.4 6.5 0.2-4.1 0.2-10.4 0-14-0.2-3.6-0.4-0.2-0.4 7.5zm14.1 9c0 9.4 0.1 13.4 0.3 9 0.2-4.4 0.2-12 0-17-0.2-4.9-0.3-1.3-0.3 8zm-115.1 10c0 6.6 0.2 9.1 0.4 5.5 0.2-3.6 0.2-9 0-12-0.2-3-0.4-0.1-0.4 6.5zm137 0.5c0 5.8 0.2 8 0.4 5 0.2-3 0.2-7.7 0-10.5-0.2-2.7-0.4-0.3-0.4 5.5zm-212 2.5c0 5.5 0.2 7.5 0.4 4.5 0.2-3 0.2-7.5 0-10-0.2-2.5-0.4 0-0.4 5.5zm-118 1c0 5 0.2 7.2 0.4 5 0.2-2.2 0.2-6.2 0-9-0.2-2.7-0.4-0.9-0.4 4zm169.8 10.3l-0.2 6.2 8.5-0.3-7.5-0.7-0.6-11.5zm-181.2 5.3l-7.5 0.6c14.6 0.3 18.7-0.1 19-0.6 0.3-0.6-0.5-1-1.7-0.9-1.2 0.1-5.6 0.5-9.8 0.9z"/></svg>